<svg width="29" height="21" viewBox="0 0 29 21" fill="none" xmlns="http://www.w3.org/2000/svg">
<path d="M23.3371 12.4508C23.3431 12.5809 23.3516 12.6846 23.3516 12.7874C23.3524 15.0142 23.3533 17.2411 23.3516 19.4679C23.3507 20.4216 22.8084 20.963 21.8523 20.963C15.0646 20.9638 8.27784 20.9638 1.4902 20.963C0.528918 20.963 0.00195312 20.4318 0.00195312 19.4654C0.00195312 15.956 0.00195312 12.4457 0.00195312 8.93631C0.00195312 8.82242 0.00195312 8.70768 0.00195312 8.55979C0.131994 8.55979 0.234833 8.55979 0.337676 8.55979C5.70421 8.55979 11.0699 8.56149 16.4364 8.55469C16.6676 8.55469 16.7781 8.62268 16.8937 8.83007C18.2069 11.1836 20.2076 12.4075 22.9147 12.4517C23.0422 12.4525 23.1688 12.4508 23.3371 12.4508ZM4.64519 16.6368C3.99838 16.6368 3.35242 16.6351 2.70561 16.6376C2.31549 16.6393 2.10131 16.8127 2.09281 17.1264C2.08431 17.457 2.30104 17.6516 2.70476 17.6525C3.99752 17.6567 5.29114 17.6567 6.5839 17.6525C6.98592 17.6516 7.20775 17.4536 7.1984 17.1264C7.1899 16.8136 6.97402 16.6385 6.58475 16.6368C5.93794 16.6342 5.29114 16.6368 4.64519 16.6368Z" fill="#282828"/>
<path d="M0.0056894 7.52561C0.0056894 6.53118 -0.0104537 5.56649 0.0116448 4.60351C0.0260938 3.9924 0.597249 3.45439 1.21686 3.41019C1.301 3.40424 1.38685 3.40679 1.471 3.40679C6.39216 3.40679 11.3125 3.40679 16.2336 3.40679C16.328 3.40679 16.4232 3.40679 16.5762 3.40679C16.0874 4.76925 16.0212 6.13086 16.3764 7.52646C10.9122 7.52561 5.47677 7.52561 0.0056894 7.52561Z" fill="#282828"/>
<path fill-rule="evenodd" clip-rule="evenodd" d="M22.8059 11.3892C25.951 11.3892 28.5005 8.83966 28.5005 5.69461C28.5005 2.54956 25.951 0 22.8059 0C19.6609 0 17.1113 2.54956 17.1113 5.69461C17.1113 8.83966 19.6609 11.3892 22.8059 11.3892ZM21.0027 3.89185C21.2018 3.6927 21.5247 3.6927 21.7239 3.89185L22.8076 4.97559L23.888 3.89523C24.0871 3.69607 24.41 3.69607 24.6092 3.89523C24.8083 4.09438 24.8083 4.41727 24.6092 4.61643L23.5288 5.69679L24.6087 6.77665C24.8078 6.9758 24.8078 7.29869 24.6087 7.49785C24.4095 7.697 24.0866 7.697 23.8875 7.49785L22.8076 6.41799L21.7244 7.50122C21.5252 7.70038 21.2023 7.70038 21.0032 7.50122C20.804 7.30207 20.804 6.97918 21.0032 6.78003L22.0864 5.69679L21.0027 4.61305C20.8035 4.4139 20.8035 4.091 21.0027 3.89185Z" fill="#237DF9"/>
</svg>
