<svg width="109" height="50" viewBox="0 0 109 50" fill="none" xmlns="http://www.w3.org/2000/svg">
<path d="M32.072 39.1623H0L16.036 23.3438L32.072 39.1623Z" fill="#237DF9"/>
<path d="M32.0712 7.52344V39.1606L16.0352 23.342L32.0712 7.52344Z" fill="#0060E4"/>
<path d="M16.036 23.342L0 39.1606V7.52344L16.036 23.342Z" fill="#7CB3FF"/>
<path d="M34.9434 39.1587V12.9415H42.124V33.4383H52.3588V39.1587H34.9434Z" fill="#F5F7F9"/>
<path d="M61.6635 18.8413V39.1587H54.5555V18.8413H61.6635ZM58.1368 10.6641C59.1548 10.6641 60.0395 10.8733 60.7909 11.2917C61.5544 11.7101 61.9362 12.541 61.9362 13.7843C61.9362 14.9918 61.5544 15.8107 60.7909 16.2411C60.0395 16.6595 59.1548 16.8687 58.1368 16.8687C57.0945 16.8687 56.2037 16.6595 55.4645 16.2411C54.7373 15.8107 54.3737 14.9918 54.3737 13.7843C54.3737 12.541 54.7373 11.7101 55.4645 11.2917C56.2037 10.8733 57.0945 10.6641 58.1368 10.6641Z" fill="#F5F7F9"/>
<path d="M77.8398 18.4826C79.9607 18.4826 81.6938 19.0744 83.039 20.2579C84.3842 21.4415 85.0569 23.3363 85.0569 25.9425V39.1587H77.9489V28.0765C77.9489 26.7256 77.7489 25.7094 77.349 25.028C76.9612 24.3346 76.331 23.9879 75.4584 23.9879C74.1131 23.9879 73.2103 24.5318 72.7497 25.6197C72.2892 26.6957 72.0589 28.2438 72.0589 30.2642V39.1587H64.951V18.8413H70.3137L71.2772 21.5311H71.5499C71.9862 20.8856 72.5073 20.3356 73.1133 19.8813C73.7193 19.4271 74.4161 19.0804 75.2039 18.8413C75.9916 18.6022 76.8703 18.4826 77.8398 18.4826Z" fill="#F5F7F9"/>
<path d="M97.4883 18.4826C99.488 18.4826 101.215 18.8293 102.669 19.5227C104.124 20.2041 105.245 21.2323 106.032 22.6071C106.82 23.9819 107.214 25.7034 107.214 27.7716V30.8919H94.507C94.5676 31.9559 94.9675 32.8286 95.7068 33.51C96.4582 34.1914 97.5611 34.5322 99.0154 34.5322C100.3 34.5322 101.476 34.4066 102.542 34.1556C103.621 33.9045 104.73 33.516 105.869 32.99V38.029C104.875 38.543 103.79 38.9196 102.615 39.1587C101.439 39.3978 99.9546 39.5174 98.161 39.5174C96.0886 39.5174 94.2343 39.1528 92.5982 38.4235C90.9621 37.6942 89.6714 36.5645 88.7261 35.0343C87.7929 33.504 87.3263 31.5374 87.3263 29.1345C87.3263 26.6957 87.7505 24.6932 88.5988 23.1271C89.4472 21.5491 90.6349 20.3835 92.1619 19.6303C93.6889 18.8652 95.4644 18.4826 97.4883 18.4826ZM97.7428 23.2526C96.9066 23.2526 96.2037 23.5157 95.6341 24.0417C95.0766 24.5557 94.7494 25.3687 94.6524 26.4805H100.761C100.748 25.8827 100.627 25.3388 100.397 24.8486C100.167 24.3585 99.8274 23.9699 99.3789 23.683C98.9427 23.3961 98.3973 23.2526 97.7428 23.2526Z" fill="#F5F7F9"/>
</svg>
