<svg width="30" height="30" viewBox="0 0 30 30" fill="none" xmlns="http://www.w3.org/2000/svg">
<path d="M14.533 16.6614C14.4387 16.6614 14.3515 16.6614 14.2643 16.6614C12.7602 16.6614 11.2561 16.6653 9.75201 16.6607C6.85783 16.6516 4.22908 14.4593 3.82208 11.5953C3.47866 9.17428 4.44732 7.25466 6.39709 5.82854C7.33691 5.14104 8.41305 4.80286 9.58292 4.79959C11.1853 4.795 12.7871 4.79762 14.3895 4.79762C14.4295 4.79762 14.4695 4.80417 14.5298 4.80942C14.5298 6.10905 14.5298 7.40278 14.5298 8.73059C14.4334 8.73059 14.3377 8.73059 14.2427 8.73059C12.7143 8.73059 11.1853 8.72665 9.65697 8.73255C8.68307 8.73648 7.83959 9.46527 7.70852 10.4005C7.56433 11.4295 8.13911 12.3588 9.11039 12.636C9.32601 12.6976 9.56129 12.714 9.7874 12.7147C11.2673 12.7212 12.7465 12.7179 14.2263 12.7179C14.3227 12.7179 14.4183 12.7179 14.533 12.7179C14.533 14.0379 14.533 15.3329 14.533 16.6614Z" fill="#237DF9"/>
<path d="M16.3984 16.6232C16.3984 15.3006 16.3984 14.0056 16.3984 12.6804C16.4974 12.6804 16.5852 12.6804 16.673 12.6804C18.1693 12.6804 19.6649 12.6784 21.1611 12.6811C23.9341 12.6863 26.4606 14.6767 27.0445 17.3906C27.5138 19.5705 26.8145 21.4259 25.2376 22.9483C24.1156 24.0317 22.7452 24.5573 21.1749 24.5474C19.6708 24.5383 18.1667 24.5455 16.6626 24.5455C16.5819 24.5455 16.502 24.5455 16.4024 24.5455C16.4024 23.2308 16.4024 21.9364 16.4024 20.6119C16.504 20.6119 16.5996 20.6119 16.6947 20.6119C18.1988 20.6119 19.7029 20.6138 21.207 20.6112C22.2858 20.6092 23.0919 19.9034 23.2393 18.8404C23.3934 17.7269 22.4915 16.6448 21.3623 16.6317C19.8091 16.6134 18.2558 16.6252 16.7032 16.6238C16.6069 16.6225 16.5105 16.6232 16.3984 16.6232Z" fill="#282828"/>
<path d="M19.9552 8.73336C18.7539 8.73336 17.5873 8.73336 16.3984 8.73336C16.3984 7.42128 16.3984 6.12755 16.3984 4.81154C17.5663 4.81154 18.7323 4.81154 19.9329 4.81154C19.8405 4.54414 19.7573 4.3082 19.6773 4.07095C19.5312 3.63971 19.6275 3.26614 19.9473 3.01382C20.2678 2.76084 20.6368 2.74052 21.0176 2.98564C22.7917 4.12797 24.6563 5.10056 26.5864 5.94798C26.9567 6.11051 27.1815 6.38381 27.1821 6.79539C27.1828 7.20566 26.9652 7.48551 26.5943 7.64804C24.9492 8.37159 23.3494 9.18295 21.8132 10.1162C21.5412 10.2814 21.2758 10.459 21.0038 10.6235C20.6204 10.8555 20.2495 10.8358 19.9336 10.5756C19.6229 10.32 19.5286 9.95238 19.6701 9.53752C19.7593 9.27799 19.8536 9.01976 19.9552 8.73336Z" fill="#237DF9"/>
<path d="M10.9763 20.613C12.1829 20.613 13.3547 20.613 14.5409 20.613C14.5409 21.9283 14.5409 23.2168 14.5409 24.5289C13.3717 24.5289 12.2065 24.5289 10.9999 24.5289C11.0916 24.7969 11.1729 25.0309 11.2529 25.2655C11.3997 25.6981 11.306 26.0749 10.9901 26.3253C10.6624 26.5848 10.2921 26.6012 9.8995 26.3482C8.13193 25.2098 6.27653 24.2379 4.35101 23.397C3.98203 23.2358 3.75264 22.9664 3.75002 22.5535C3.7474 22.1315 3.97547 21.8562 4.3556 21.6891C6.2785 20.8423 8.13717 19.875 9.90474 18.7372C10.3026 18.481 10.6663 18.4987 10.994 18.7641C11.3112 19.0217 11.4043 19.3939 11.2561 19.8239C11.1683 20.0755 11.0779 20.3265 10.9763 20.613Z" fill="#282828"/>
</svg>
