<?xml version="1.0" encoding="utf-8"?>
<!-- Svg Vector Icons : http://www.onlinewebfonts.com/icon -->
<!DOCTYPE svg PUBLIC "-//W3C//DTD SVG 1.1//EN" "http://www.w3.org/Graphics/SVG/1.1/DTD/svg11.dtd">
<svg version="1.1" xmlns="http://www.w3.org/2000/svg" xmlns:xlink="http://www.w3.org/1999/xlink" x="0px" y="0px" viewBox="0 0 1000 1000" enable-background="new 0 0 1000 1000" xml:space="preserve">
<metadata> Svg Vector Icons : http://www.onlinewebfonts.com/icon </metadata>
<g><path fill="#ffffff" d="M500,10C229.4,10,10,229.4,10,500c0,270.6,219.4,490,490,490c270.6,0,490-219.4,490-490C990,229.4,770.6,10,500,10L500,10z M599.3,783.7h-16.8v126.4h-77.4V783.7h-51.6v126.4h-77.4V783.7H226.6l2.6-81.2h59.3c15.5,0,29.7-9,29.7-37.4v-343c0-20.6-12.9-28.4-38.7-28.4h-58v-80h154.7V90h77.4v123.8h51.6V90h77.4v125.2c78.8,6.7,177,38,188.3,121c12.9,95.4-64.5,134.1-64.5,134.1s104.5,24.5,104.5,130.3C810.8,706.3,757.9,783.7,599.3,783.7L599.3,783.7z M552.9,529.7h-38.7h-60.6v165.1h85.1c82.5,0,122.5-33.5,122.5-95.4C661.2,537.4,576.1,529.7,552.9,529.7L552.9,529.7z M623.8,368.5c0-63.2-76.1-69.6-114.8-69.6h-55.5v151.5H556C582.9,446.7,623.8,425.5,623.8,368.5L623.8,368.5z"/></g>
</svg>