<svg width="79" height="79" viewBox="0 0 79 79" fill="none" xmlns="http://www.w3.org/2000/svg">
<g clip-path="url(#clip0_1199_14285)">
<circle cx="39.5" cy="39.5" r="39.5" fill="white"/>
<g clip-path="url(#clip1_1199_14285)">
<path d="M60.5967 42.5011C60.2845 43.2718 59.592 43.4246 58.8865 43.5152C58.5583 43.5573 58.4327 43.7131 58.3569 44.0093C58.2479 44.4376 58.1229 44.8665 57.9529 45.2729C57.8261 45.5768 57.8125 45.8001 58.0868 46.0234C58.274 46.1763 58.4286 46.3706 58.5891 46.5548C59.0672 47.1033 59.1045 47.6649 58.6637 48.2313C58.2852 48.7176 57.8848 49.1886 57.4695 49.6441C56.9932 50.1666 56.367 50.2969 55.8173 49.8503C55.1236 49.2875 54.5069 49.1459 53.8156 49.7827C53.7955 49.8011 53.7647 49.8118 53.7374 49.8165C52.8873 49.9693 52.7215 50.5291 52.7499 51.3046C52.7819 52.176 52.3554 52.5824 51.4928 52.6683C50.9792 52.7198 50.4662 52.7779 49.952 52.8176C49.0978 52.8833 48.5812 52.5492 48.4574 51.7003C48.3384 50.8869 48.0333 50.4717 47.1719 50.214C46.3983 49.983 45.9504 50.0321 45.4173 50.6127C44.7739 51.3141 44.1952 51.2916 43.4576 50.682C43.0596 50.3532 42.6627 50.0221 42.2746 49.682C41.6745 49.156 41.533 48.5559 42.0229 47.938C42.5673 47.2509 42.636 46.7189 42.155 45.9144C41.7853 45.2966 41.4761 45.0323 40.7682 45.0649C39.7274 45.1129 39.2997 44.6485 39.241 43.5982C39.2149 43.126 39.161 42.6557 39.1207 42.1841C39.0585 41.4608 39.385 40.8892 40.0982 40.7962C40.988 40.68 41.3979 40.3157 41.6123 39.3975C41.783 38.6677 41.8369 38.2027 41.2297 37.6707C40.5561 37.0807 40.5845 36.4782 41.1497 35.7833C41.4844 35.3716 41.8244 34.9641 42.171 34.5612C42.6923 33.9552 43.3291 33.8148 43.9529 34.3148C44.5767 34.8148 45.082 34.8669 45.6987 34.3397C45.9605 34.1158 46.3485 34.0459 46.6566 33.8681C46.7739 33.8 46.8811 33.633 46.903 33.4967C46.9581 33.1596 46.9374 32.8095 46.9913 32.4719C47.0795 31.9198 47.4273 31.5655 47.98 31.4921C48.6192 31.4073 49.2631 31.3457 49.907 31.3149C50.6623 31.2788 51.1907 31.6461 51.2606 32.3984C51.3359 33.21 51.6966 33.5743 52.4845 33.6513C52.8003 33.6821 53.0953 33.8924 53.411 33.9771C53.5449 34.0133 53.7392 33.9801 53.8529 33.9013C54.0751 33.7479 54.2522 33.5317 54.4607 33.3563C54.9803 32.9203 55.5353 32.8877 56.0685 33.2988C56.5679 33.6839 57.0513 34.0921 57.5175 34.5168C58.0358 34.9883 58.1537 35.6187 57.7029 36.1719C57.181 36.8123 57.2562 37.2898 57.617 38.0113C57.9985 38.7743 58.3521 39.1635 59.2461 39.0812C59.9107 39.0202 60.3373 39.5118 60.4309 40.1972C60.4889 40.619 60.5434 41.0414 60.5997 41.4638C60.5967 41.8121 60.5967 42.1563 60.5967 42.5011ZM46.1127 41.9596C46.0944 44.0134 47.7513 45.7586 49.7364 45.777C51.9958 45.7977 53.6817 44.1675 53.7042 41.9389C53.7244 39.9858 52.0076 38.2098 50.0818 38.1902C47.8117 38.1665 46.1323 39.7618 46.1127 41.9596Z" fill="#237DF9"/>
<path d="M22.1211 20.3399C22.4641 20.5116 22.7443 20.6171 22.9837 20.7812C23.3847 21.0561 23.7372 21.5602 24.153 21.6105C24.5618 21.6597 25.0197 21.2521 25.4652 21.0673C25.8082 20.9251 26.1624 20.8078 26.5173 20.6977C26.7252 20.6331 26.8537 20.5602 26.8638 20.2996C26.8798 19.9003 26.9586 19.5034 27.0101 19.1059C27.1025 18.3944 27.4562 17.9744 28.1558 17.9377C29.1279 17.8868 30.1066 17.885 31.0787 17.9347C31.7931 17.9709 32.1693 18.4128 32.254 19.1314C32.3008 19.5295 32.3292 19.9317 32.4074 20.3239C32.4335 20.4548 32.5662 20.6129 32.69 20.6686C33.3801 20.979 34.0786 21.2723 34.7841 21.5454C34.9079 21.5934 35.1111 21.5685 35.2225 21.4938C35.5435 21.2794 35.8314 21.0164 36.1401 20.783C36.7858 20.2942 37.3758 20.3162 37.9534 20.873C38.563 21.4607 39.1613 22.0602 39.7495 22.6691C40.3099 23.2485 40.3348 23.8279 39.8502 24.4807C39.5605 24.8711 39.0819 25.2289 39.0203 25.6501C38.9622 26.0446 39.3467 26.5019 39.5262 26.9355C39.6186 27.1601 39.7276 27.3881 39.7602 27.6245C39.8206 28.0563 40.083 28.1736 40.4645 28.1932C40.7933 28.2104 41.1209 28.2548 41.4479 28.2945C42.1244 28.3768 42.5681 28.7376 42.606 29.4064C42.6629 30.4058 42.6653 31.4128 42.6108 32.4128C42.5729 33.0976 42.1475 33.4483 41.4663 33.536C41.0255 33.5922 40.5818 33.6296 40.1452 33.7095C40.0274 33.7309 39.8846 33.8547 39.8336 33.9678C39.5357 34.6325 39.2507 35.3043 38.9883 35.9837C38.9403 36.1087 38.967 36.3143 39.0428 36.4257C39.2934 36.7918 39.5884 37.127 39.8567 37.4819C40.3466 38.13 40.3164 38.7075 39.7483 39.2905C39.1577 39.8965 38.5594 40.4966 37.9522 41.0866C37.3675 41.6541 36.8047 41.6802 36.1448 41.1837C35.7894 40.9166 35.4334 40.6482 35.101 40.3538C34.915 40.1891 34.7782 40.2193 34.5714 40.3117C33.9453 40.5908 33.3132 40.8627 32.6645 41.0824C32.395 41.1737 32.299 41.307 32.2729 41.5587C32.222 42.0427 32.1894 42.5314 32.097 43.0083C31.9619 43.7056 31.5378 44.0373 30.8281 44.0432C29.9525 44.0509 29.0776 44.0509 28.202 44.0432C27.4799 44.0373 27.0451 43.6825 26.9183 42.9704C26.836 42.506 26.7915 42.0332 26.7524 41.5623C26.7276 41.2602 26.6209 41.0878 26.3076 40.9782C25.7288 40.7762 25.1796 40.4895 24.6044 40.275C24.4546 40.2193 24.2152 40.2448 24.0825 40.3325C23.7135 40.5777 23.3823 40.8787 23.0299 41.15C22.3439 41.679 21.7687 41.6535 21.1555 41.0558C20.5596 40.4746 19.9696 39.8876 19.3896 39.2905C18.8233 38.7081 18.7901 38.1306 19.2759 37.4813C19.5419 37.1253 19.8161 36.7734 20.1088 36.4399C20.2942 36.2284 20.3214 36.0507 20.1941 35.7888C19.9447 35.2752 19.7137 34.7492 19.5306 34.2089C19.4275 33.9044 19.254 33.8191 18.972 33.7948C18.5152 33.7557 18.0573 33.7131 17.6065 33.6343C16.8625 33.504 16.5106 33.078 16.5053 32.3316C16.4987 31.4561 16.4976 30.5805 16.5059 29.7056C16.5124 29.0178 16.8411 28.5948 17.5141 28.4574C17.9614 28.3662 18.4211 28.3235 18.8778 28.2903C19.1734 28.269 19.3197 28.1594 19.4175 27.8632C19.6236 27.2406 19.8754 26.6311 20.1384 26.0298C20.2296 25.8207 20.2492 25.6809 20.0898 25.4984C19.8067 25.175 19.5466 24.8308 19.2871 24.4878C18.7913 23.832 18.8162 23.2627 19.3813 22.681C19.9713 22.0738 20.559 21.4618 21.1846 20.8926C21.4434 20.6574 21.7977 20.5259 22.1211 20.3399ZM34.2788 30.8708C34.2758 28.3128 32.1853 26.2176 29.6332 26.2152C27.0883 26.2122 24.9853 28.3052 24.9658 30.8607C24.9462 33.4145 27.0706 35.5347 29.6439 35.5294C32.209 35.5234 34.2817 33.44 34.2788 30.8708Z" fill="#282828"/>
<path d="M26.7324 57.608C26.9267 57.2751 27.0766 56.9178 27.3154 56.6353C27.5683 56.3355 27.5831 56.1122 27.4534 55.7301C27.2028 54.9914 26.8651 54.5252 25.9973 54.4967C25.5068 54.4807 25.197 54.043 25.1496 53.5454C25.1034 53.0632 25.098 52.5673 25.1525 52.0863C25.226 51.4359 25.5974 51.0638 26.2941 51.0194C26.8657 50.9827 27.0737 50.7303 27.294 50.2214C27.5807 49.5597 27.6702 49.0657 27.1406 48.478C26.7858 48.0841 26.8823 47.5486 27.2413 47.1386C27.5428 46.7945 27.8675 46.4645 28.2182 46.1713C28.7401 45.7353 29.2898 45.7388 29.8496 46.237C30.211 46.5587 30.5006 46.5948 30.8981 46.3431C31.1351 46.1932 31.4177 46.0943 31.6931 46.0326C32.0367 45.9556 32.1368 45.7459 32.1747 45.4337C32.2926 44.4628 32.6972 44.1169 33.6759 44.1251C33.9199 44.1275 34.1634 44.1287 34.4075 44.1317C35.2487 44.1417 35.7433 44.5694 35.7741 45.4006C35.7895 45.8188 35.9489 46.0072 36.3339 46.1185C36.6597 46.2133 36.9696 46.3756 37.2711 46.538C37.479 46.6499 37.6206 46.6268 37.809 46.484C38.7361 45.7809 39.1815 45.8223 39.999 46.6535C40.0695 46.7252 40.14 46.7968 40.2105 46.8685C41.0671 47.7393 41.0813 48.141 40.3403 49.1309C40.2473 49.2547 40.2721 49.4804 40.2763 49.6581C40.2781 49.7499 40.3723 49.8358 40.393 49.9318C40.5577 50.6859 40.922 51.1527 41.7833 51.219C42.3064 51.2593 42.5309 51.7658 42.5706 52.2688C42.6032 52.6817 42.6056 53.104 42.5588 53.5146C42.4723 54.2716 42.0375 54.6762 41.23 54.6982C40.8237 54.7094 40.6216 54.851 40.5452 55.2254C40.5369 55.2674 40.5316 55.3142 40.5085 55.3486C40.0678 56.0073 39.9813 56.6092 40.5867 57.2668C40.8865 57.5926 40.8231 58.1014 40.5121 58.4598C40.1661 58.8585 39.7917 59.2424 39.3806 59.5706C38.9043 59.9503 38.3528 59.9059 37.8208 59.4183C37.4458 59.0747 37.1591 59.1032 36.6982 59.2637C35.9572 59.522 35.4572 59.8129 35.4128 60.7127C35.3849 61.2796 34.837 61.561 34.1498 61.5693C33.8056 61.5734 33.4608 61.5628 33.1172 61.5385C32.4348 61.4905 31.9639 61.0877 31.9413 60.407C31.9206 59.798 31.6925 59.519 31.1155 59.2779C30.5143 59.0268 30.102 58.9355 29.5712 59.4154C29.0836 59.8555 28.5096 59.7744 28.0138 59.3342C27.704 59.0587 27.4054 58.7614 27.1495 58.4361C26.9783 58.2205 26.8942 57.9397 26.7324 57.608ZM33.8554 55.8622C35.5638 55.8687 36.9601 54.5133 36.9944 52.8138C37.0288 51.1314 35.5786 49.6605 33.8962 49.6711C32.1813 49.6818 30.7933 51.0585 30.7903 52.7516C30.788 54.4671 32.1558 55.8557 33.8554 55.8622Z" fill="#282828"/>
</g>
</g>
<defs>
<clipPath id="clip0_1199_14285">
<rect width="79" height="79" fill="white"/>
</clipPath>
<clipPath id="clip1_1199_14285">
<rect width="45" height="45" fill="white" transform="translate(16.5 17)"/>
</clipPath>
</defs>
</svg>
