<svg width="79" height="79" viewBox="0 0 79 79" fill="none" xmlns="http://www.w3.org/2000/svg">
<g clip-path="url(#clip0_1199_14254)">
<circle cx="39.5" cy="39.5" r="39.5" fill="white"/>
<path d="M40.9719 26.2342C40.9719 24.6563 40.9631 23.0812 40.9749 21.5033C40.9897 19.3628 42.4137 17.924 44.5423 17.9151C47.1298 17.9033 49.7173 17.9033 52.3048 17.9151C54.3891 17.924 55.8486 19.354 55.8664 21.4411C55.89 24.6207 55.89 27.7974 55.8664 30.977C55.8515 33.0819 54.4216 34.503 52.3285 34.5148C49.7174 34.5326 47.1062 34.5326 44.492 34.5148C42.396 34.5 40.9897 33.073 40.9749 30.9622C40.9631 29.3872 40.9719 27.8122 40.9719 26.2342Z" fill="#282828"/>
<path d="M36.7031 34.3427C36.7031 32.8535 36.7505 31.4532 36.6913 30.0558C36.5966 27.7822 35.0127 25.9496 32.7952 25.4374C30.6341 24.9401 28.3544 25.8874 27.3508 27.8858C26.9364 28.7088 26.7824 29.7065 26.6966 30.642C26.587 31.8381 26.6699 33.0489 26.6699 34.2628C25.4028 34.0674 24.2897 32.7795 24.2719 31.3437C24.2275 27.942 24.2216 24.5404 24.2719 21.1387C24.2985 19.3535 25.7995 17.9384 27.5966 17.9206C30.3321 17.891 33.0676 17.891 35.8031 17.9206C37.6624 17.9414 39.0952 19.3565 39.1278 21.2897C39.1841 24.5907 39.1752 27.8946 39.1278 31.1986C39.1041 32.7351 38.2248 33.8246 36.7031 34.3427Z" fill="#237DF9"/>
<path d="M29.124 50.2495C29.124 50.0868 29.124 49.9242 29.124 49.7616C29.124 43.2941 29.1283 36.8265 29.1197 30.359C29.1189 29.5253 29.3266 28.7974 29.9945 28.2674C30.7552 27.6634 31.6103 27.5524 32.4851 27.9628C33.3968 28.3913 33.8476 29.1605 33.8518 30.1628C33.863 32.6528 33.8561 35.1427 33.8561 37.6318C33.8561 37.7884 33.8561 37.945 33.8561 38.2229C34.4605 36.8738 35.386 36.1933 36.7673 36.528C38.0749 36.8455 38.5831 37.8383 38.5848 39.1685C39.2836 37.8401 40.204 37.2756 41.29 37.4787C42.5434 37.7136 43.0637 38.4423 43.3272 40.3868C43.6457 39.5342 44.178 38.9611 45.0262 38.7374C46.49 38.352 47.9743 39.4129 47.9786 40.9426C47.9889 44.49 48.0559 48.0443 47.8705 51.5839C47.6807 55.2242 46.4368 58.5849 44.4708 61.6599C44.3858 61.7924 44.16 61.9086 43.9994 61.9086C39.4304 61.9215 34.8615 61.9215 30.2925 61.912C30.1285 61.912 29.9156 61.8458 29.8083 61.7322C27.4319 59.2121 25.5809 56.378 24.7585 52.9648C24.094 50.2056 23.4776 47.4343 22.8535 44.6647C22.6045 43.5573 23.2252 42.623 24.3344 42.4079C25.0727 42.2642 25.8093 42.2151 26.4901 42.6376C27.0928 43.011 27.4482 43.553 27.6079 44.2431C28.0578 46.1893 28.5162 48.1329 28.9721 50.0774C28.9858 50.1376 29.0081 50.1961 29.027 50.2555C29.0596 50.2529 29.0914 50.2512 29.124 50.2495Z" fill="#282828"/>
</g>
<defs>
<clipPath id="clip0_1199_14254">
<rect width="79" height="79" fill="white"/>
</clipPath>
</defs>
</svg>
