<svg width="85" height="38" viewBox="0 0 85 38" fill="none" xmlns="http://www.w3.org/2000/svg">
<path d="M25.0103 29.7643H0L12.5051 17.7422L25.0103 29.7643Z" fill="#237DF9"/>
<path d="M25.011 5.71875V29.763L12.5059 17.7409L25.011 5.71875Z" fill="#0060E4"/>
<path d="M12.5051 17.7409L0 29.763V5.71875L12.5051 17.7409Z" fill="#7CB3FF"/>
<path d="M27.25 29.7575V9.8324H32.8496V25.41H40.8308V29.7575H27.25Z" fill="#282828"/>
<path d="M48.0868 14.3162V29.7575H42.5439V14.3162H48.0868ZM45.3366 8.10156C46.1305 8.10156 46.8204 8.26056 47.4063 8.57857C48.0017 8.89657 48.2994 9.52803 48.2994 10.4729C48.2994 11.3906 48.0017 12.013 47.4063 12.3401C46.8204 12.6581 46.1305 12.8171 45.3366 12.8171C44.5238 12.8171 43.8292 12.6581 43.2527 12.3401C42.6856 12.013 42.4021 11.3906 42.4021 10.4729C42.4021 9.52803 42.6856 8.89657 43.2527 8.57857C43.8292 8.26056 44.5238 8.10156 45.3366 8.10156Z" fill="#282828"/>
<path d="M60.7014 14.0437C62.3553 14.0437 63.7067 14.4934 64.7558 15.3929C65.8048 16.2924 66.3293 17.7325 66.3293 19.7132V29.7575H60.7864V21.335C60.7864 20.3083 60.6305 19.536 60.3186 19.0181C60.0162 18.4911 59.5247 18.2277 58.8443 18.2277C57.7952 18.2277 57.0912 18.6411 56.732 19.4679C56.3729 20.2856 56.1933 21.4622 56.1933 22.9977V29.7575H50.6504V14.3162H54.8324L55.5838 16.3605H55.7964C56.1366 15.8699 56.543 15.452 57.0156 15.1067C57.4881 14.7614 58.0315 14.4979 58.6458 14.3162C59.2601 14.1345 59.9453 14.0437 60.7014 14.0437Z" fill="#282828"/>
<path d="M76.0236 14.0437C77.583 14.0437 78.9297 14.3071 80.0638 14.8341C81.1979 15.352 82.0721 16.1334 82.6864 17.1783C83.3007 18.2231 83.6079 19.5315 83.6079 21.1033V23.4747H73.6987C73.746 24.2833 74.0578 24.9466 74.6343 25.4645C75.2203 25.9824 76.0803 26.2413 77.2144 26.2413C78.2162 26.2413 79.1329 26.1459 79.9646 25.9551C80.8057 25.7643 81.6705 25.469 82.5589 25.0692V28.8989C81.7839 29.2896 80.938 29.5758 80.0213 29.7575C79.1046 29.9392 77.9469 30.0301 76.5481 30.0301C74.932 30.0301 73.4861 29.753 72.2102 29.1987C70.9343 28.6445 69.9278 27.7859 69.1907 26.6229C68.463 25.4599 68.0991 23.9653 68.0991 22.1391C68.0991 20.2856 68.4299 18.7637 69.0914 17.5735C69.753 16.3742 70.6792 15.4883 71.87 14.9159C73.0608 14.3344 74.4453 14.0437 76.0236 14.0437ZM76.2221 17.6689C75.57 17.6689 75.0218 17.8688 74.5776 18.2685C74.1429 18.6592 73.8877 19.2771 73.8121 20.122H78.5753C78.5659 19.6678 78.4714 19.2544 78.2918 18.8818C78.1122 18.5093 77.8476 18.214 77.4979 17.996C77.1577 17.7779 76.7324 17.6689 76.2221 17.6689Z" fill="#282828"/>
</svg>
