<svg width="79" height="79" viewBox="0 0 79 79" fill="none" xmlns="http://www.w3.org/2000/svg">
<g clip-path="url(#clip0_1199_14297)">
<circle cx="39.5" cy="39.5" r="39.5" fill="white"/>
<path d="M46.1239 20.6047C46.1239 21.5389 46.1239 22.4205 46.1239 23.3673C45.9382 23.3673 45.7593 23.3673 45.5804 23.3673C37.3943 23.3673 29.2081 23.3673 21.022 23.3673C20.8659 23.3673 20.679 23.3204 20.5605 23.3891C20.3896 23.4876 20.2529 23.6616 20.1344 23.8264C20.0866 23.8928 20.1253 24.0211 20.1253 24.1207C20.1253 30.6329 20.1253 37.1451 20.1253 43.6573C20.1253 43.7981 20.1253 43.9378 20.1253 44.1061C32.4154 44.1061 44.6712 44.1061 56.9544 44.1061C56.9624 43.955 56.9749 43.8164 56.9749 43.6779C56.9761 37.1508 56.9761 30.6249 56.9761 24.0978C56.9761 23.4532 56.8895 23.3685 56.2264 23.3673C55.2454 23.365 54.2656 23.3673 53.2846 23.3673C53.1319 23.3673 52.9793 23.3673 52.8107 23.3673C52.8107 22.4308 52.8107 21.5492 52.8107 20.6722C52.8437 20.6505 52.8665 20.6207 52.8904 20.6219C54.2246 20.6322 55.5644 20.5738 56.8929 20.6757C58.4698 20.7959 59.6945 22.2259 59.6957 23.8219C59.7014 31.3622 59.7025 38.9025 59.6957 46.444C59.6945 48.151 58.2909 49.6096 56.5921 49.6234C52.9827 49.6508 49.3721 49.6371 45.7627 49.6394C45.5952 49.6394 45.4266 49.6394 45.2295 49.6394C45.2295 51.3647 45.2295 53.0581 45.2295 54.7995C45.3708 54.8063 45.52 54.8201 45.6693 54.8201C47.09 54.8212 48.5119 54.8235 49.9327 54.8201C50.7496 54.8178 51.5118 54.9758 52.1567 55.5219C52.5874 55.8871 52.8767 56.3393 52.9143 56.9084C52.9474 57.4201 52.9542 57.9365 52.9235 58.4483C52.8927 58.9669 52.5475 59.2657 52.0268 59.2978C51.914 59.3046 51.7989 59.3001 51.6861 59.3001C42.9315 59.3001 34.1768 59.3001 25.4221 59.3001C24.4331 59.3001 24.162 59.0264 24.162 58.0281C24.162 57.8277 24.162 57.6285 24.162 57.4282C24.1631 55.9867 25.0757 54.9368 26.5227 54.8704C28.1109 54.7972 29.7049 54.8315 31.2965 54.8201C31.4788 54.8189 31.6611 54.8201 31.8719 54.8201C31.8719 53.0901 31.8719 51.398 31.8719 49.6371C31.7169 49.6371 31.5529 49.6371 31.3888 49.6371C27.8637 49.6371 24.3397 49.6428 20.8146 49.6348C19.06 49.6302 17.7862 48.6101 17.4524 46.9592C17.4046 46.7245 17.4023 46.4772 17.4023 46.2356C17.4 38.8384 17.4 31.44 17.4011 24.0428C17.4011 22.0083 18.7889 20.6116 20.834 20.6058C24.0458 20.5978 27.2576 20.6035 30.4694 20.6035C35.5007 20.6035 40.5309 20.6035 45.5622 20.6035C45.7445 20.6047 45.9256 20.6047 46.1239 20.6047Z" fill="#282828"/>
<path d="M51.5993 30.0941C51.5993 33.1395 51.5993 36.1859 51.5993 39.2313C51.5993 40.1694 51.3234 40.4003 50.2042 40.4014C49.5361 40.4014 48.868 40.4059 48.1985 40.4003C47.4873 40.3936 47.1016 40.0746 47.1016 39.4767C47.099 33.2042 47.099 26.9317 47.1016 20.6591C47.1016 20.0657 47.4873 19.7232 48.1802 19.711C48.9294 19.6987 49.6799 19.7032 50.4304 19.7087C51.2266 19.7143 51.598 20.0322 51.598 20.706C51.6006 23.835 51.5993 26.964 51.5993 30.0941Z" fill="#282828"/>
<path d="M37.1989 33.6541C37.1989 35.5366 37.2 37.419 37.1989 39.3015C37.1979 40.1558 36.9535 40.4058 36.129 40.4058C35.6112 40.4058 35.0923 40.4069 34.5745 40.4058C33.8955 40.4036 33.6033 40.1025 33.6033 39.3928C33.6013 35.8985 33.6023 32.4042 33.6023 28.9099C33.6023 28.5448 33.595 28.1785 33.6044 27.8133C33.62 27.2405 33.9361 26.9166 34.4872 26.9101C35.057 26.9036 35.6278 26.9068 36.1976 26.909C36.9338 26.9112 37.1969 27.184 37.1979 27.9665C37.201 29.862 37.1989 31.7575 37.1989 33.6541Z" fill="#282828"/>
<path d="M39.9014 34.5376C39.9014 32.9746 39.8988 31.4128 39.9027 29.8498C39.9053 29.0004 40.2369 28.7103 41.1977 28.7068C41.879 28.7045 42.559 28.6987 43.2403 28.7092C44.0191 28.7208 44.3962 29.0631 44.3975 29.7639C44.4014 32.9619 44.4014 36.1587 44.3975 39.3566C44.3962 40.0621 44.0178 40.3974 43.239 40.4009C42.5252 40.4044 41.8127 40.4032 41.0989 40.4009C40.2603 40.3986 39.9079 40.1004 39.9053 39.3554C39.8962 37.7495 39.9027 36.1436 39.9014 34.5376Z" fill="#237DF9"/>
<path d="M29.9986 37.2505C29.9986 38.005 30.0025 38.7595 29.9973 39.5139C29.9934 40.097 29.6261 40.3926 28.8968 40.3977C28.1322 40.4028 27.3664 40.4028 26.6018 40.3977C25.8869 40.3926 25.5065 40.1031 25.5039 39.5529C25.4987 38.0183 25.4987 36.4838 25.5039 34.9502C25.5052 34.4 25.8856 34.1095 26.6005 34.1054C27.365 34.1003 28.1309 34.1003 28.8955 34.1054C29.6261 34.1105 29.9934 34.4062 29.9973 34.9882C30.0025 35.7416 29.9986 36.4961 29.9986 37.2505Z" fill="#237DF9"/>
</g>
<defs>
<clipPath id="clip0_1199_14297">
<rect width="79" height="79" fill="white"/>
</clipPath>
</defs>
</svg>
