<svg width="30" height="30" viewBox="0 0 30 30" fill="none" xmlns="http://www.w3.org/2000/svg">
<path d="M1 8.27371C1.36019 6.88701 2.41081 6.16589 3.60317 5.5909C5.05052 4.89317 6.59868 4.53371 8.17608 4.29187C9.80972 4.04054 11.4565 3.9609 13.107 4.01716C15.491 4.09899 17.8392 4.40439 20.0821 5.27089C21.0911 5.66104 22.0504 6.14251 22.7664 6.98929C22.9578 7.21578 23.1032 7.48027 23.2698 7.72721C23.2552 7.74475 23.2406 7.76228 23.226 7.77982C22.906 7.70237 22.5874 7.61981 22.2667 7.54895C17.5878 6.51001 12.7614 8.75372 10.5462 13.0022C10.4563 13.1739 10.3723 13.2645 10.1582 13.2463C8.2769 13.0841 6.41969 12.8006 4.63553 12.1525C3.59441 11.7741 2.60442 11.3036 1.80952 10.4984C1.40256 10.0856 1.15562 9.58954 1.00146 9.03939C1 8.78441 1 8.52943 1 8.27371Z" fill="#282828"/>
<path d="M1 18.8281C2.57374 20.125 4.43899 20.7701 6.39411 21.1697C7.52218 21.4006 8.67363 21.5182 9.81704 21.6702C9.99531 21.6943 10.034 21.7922 10.0866 21.9215C10.6923 23.4113 11.5793 24.7103 12.7694 25.7923C13.1968 26.181 13.6644 26.5251 14.1335 26.9058C13.9698 26.9189 13.8201 26.9357 13.671 26.9423C10.6507 27.0716 7.66976 26.8583 4.78603 25.8734C4.23003 25.6835 3.68646 25.4394 3.16627 25.1647C2.14122 24.6241 1.30028 23.9 1 22.7106C1 21.4167 1 20.1228 1 18.8281Z" fill="#282828"/>
<path d="M1.00073 11.9922C2.5752 13.289 4.44192 13.9268 6.3963 14.3375C7.49661 14.5683 8.61591 14.7093 9.76005 14.8964C9.27857 16.5497 9.17483 18.2565 9.52187 20.0311C8.95857 19.9544 8.43033 19.8916 7.90502 19.8083C6.44599 19.5767 5.02056 19.2187 3.67477 18.5947C2.9858 18.2755 2.34433 17.8838 1.80733 17.3337C1.40257 16.9194 1.1527 16.4255 1 15.8754C1.00073 14.5815 1.00073 13.2868 1.00073 11.9922Z" fill="#282828"/>
<path d="M29.0005 17.9549C28.9998 22.9458 24.9587 26.9787 19.9621 26.9751C14.9873 26.9714 10.9543 22.9297 10.9551 17.9491C10.9558 12.959 14.999 8.92531 19.9949 8.92969C24.9704 8.93407 29.0012 12.9736 29.0005 17.9549ZM19.1569 22.4394C19.1569 22.6053 19.1526 22.7317 19.1577 22.8588C19.1774 23.3257 19.5281 23.6859 19.9665 23.6939C20.4099 23.702 20.7782 23.3315 20.7979 22.8537C20.8037 22.7185 20.7986 22.5834 20.7986 22.4438C20.9199 22.4219 21.0178 22.4029 21.1164 22.3861C22.3592 22.1728 23.2747 21.0396 23.2622 19.7303C23.2506 18.4788 22.2869 17.339 21.0595 17.1893C20.475 17.1184 19.8788 17.1454 19.2877 17.1308C18.5491 17.1126 18.0727 16.3578 18.3876 15.6915C18.5724 15.3014 18.8888 15.1034 19.3235 15.1034C20.3442 15.1026 21.3641 15.1041 22.3848 15.1012C22.8283 15.0997 23.1439 14.8878 23.2549 14.5306C23.4223 13.9936 23.0365 13.4741 22.4549 13.4661C21.9113 13.4588 21.367 13.4646 20.8278 13.4646C20.7015 12.5177 20.4874 12.208 19.976 12.2101C19.4558 12.2123 19.2285 12.5477 19.1379 13.4573C19.0554 13.4748 18.9692 13.4975 18.8808 13.5121C17.6935 13.7086 16.7525 14.7541 16.6955 15.9399C16.6341 17.2119 17.4181 18.3736 18.6192 18.6476C19.1949 18.7791 19.8108 18.7367 20.4085 18.7725C20.5714 18.782 20.7409 18.7645 20.8973 18.8017C21.3868 18.9186 21.7177 19.3972 21.6659 19.8852C21.6118 20.3996 21.2012 20.7905 20.6744 20.7956C19.6355 20.8058 18.5973 20.797 17.5584 20.8021C17.0323 20.8043 16.6546 21.158 16.6597 21.6277C16.6648 22.1004 17.0404 22.4365 17.57 22.438C18.0873 22.4409 18.6046 22.4394 19.1569 22.4394Z" fill="#237DF9"/>
</svg>
