<svg width="79" height="79" viewBox="0 0 79 79" fill="none" xmlns="http://www.w3.org/2000/svg">
<g clip-path="url(#clip0_1199_14266)">
<circle cx="39.5" cy="39.5" r="39.5" fill="white"/>
<path d="M19.4746 38.9886C19.5076 38.9082 19.5447 38.8288 19.5726 38.7463C19.9046 37.7666 20.742 37.1386 21.7815 37.1314C23.5428 37.12 25.3041 37.1273 27.0665 37.1273C30.6923 37.1273 34.3191 37.1273 37.9448 37.1273C38.0975 37.1273 38.2511 37.1273 38.346 37.1273C38.2429 37.9141 38.0665 38.6823 38.0645 39.4516C38.0634 40.2106 38.2398 40.9686 38.3439 41.776C38.2748 41.776 38.1284 41.776 37.983 41.776C32.7753 41.776 27.5676 41.7492 22.36 41.7935C20.9173 41.8059 19.9314 41.3192 19.4746 39.9157C19.4746 39.6063 19.4746 39.298 19.4746 38.9886Z" fill="#237DF9"/>
<path d="M19.4746 49.7901C19.6829 49.1847 19.9613 48.6124 20.5491 48.303C20.8915 48.1236 21.2906 47.9545 21.6649 47.9504C24.6338 47.9205 27.6037 47.9318 30.5726 47.9318C30.6098 47.9318 30.6479 47.9452 30.6252 47.9411C30.5242 48.7176 30.3468 49.4859 30.3458 50.2541C30.3447 51.0121 30.5211 51.771 30.6252 52.5785C30.5685 52.5785 30.4365 52.5785 30.3035 52.5785C27.6553 52.5785 25.0061 52.5372 22.36 52.595C20.9163 52.627 19.9314 52.1206 19.4746 50.7171C19.4746 50.4078 19.4746 50.0984 19.4746 49.7901Z" fill="#282828"/>
<path d="M19.4746 28.1795C19.6829 27.5752 19.9665 27.0132 20.5471 26.6894C20.8327 26.5295 21.1596 26.3563 21.4721 26.3491C22.9993 26.314 24.5276 26.3336 26.094 26.3336C25.5681 27.868 25.5516 29.3891 26.0992 30.9483C25.9383 30.9555 25.8053 30.9658 25.6733 30.9658C24.4657 30.9669 23.2571 30.9669 22.0496 30.9669C20.6853 30.9658 19.9758 30.4585 19.5251 29.1622C19.5179 29.1406 19.4921 29.1251 19.4746 29.1065C19.4746 28.7972 19.4746 28.4878 19.4746 28.1795Z" fill="#282828"/>
<path d="M38.377 30.968C38.9256 29.4006 38.9266 27.8898 38.3883 26.3513C38.5048 26.3389 38.5997 26.3213 38.6935 26.3213C44.6726 26.3203 50.6526 26.3203 56.6316 26.3203C57.5804 26.3203 58.2971 26.74 58.7333 27.5712C59.1612 28.3879 59.1025 29.217 58.5755 29.9781C58.1125 30.6463 57.4546 30.9711 56.6347 30.9701C54.8085 30.967 52.9832 30.9691 51.1569 30.9691C47.0681 30.9691 42.9783 30.9691 38.8895 30.9691C38.7368 30.968 38.5832 30.968 38.377 30.968Z" fill="#282828"/>
<path d="M43.0078 52.5781C43.5616 51.0044 43.5523 49.4824 43.0119 47.9304C43.1677 47.9304 43.2821 47.9304 43.3956 47.9304C47.7803 47.9304 52.164 47.9283 56.5488 47.9314C57.7966 47.9324 58.6927 48.6306 58.9536 49.7876C59.2578 51.1354 58.2132 52.5276 56.8314 52.5636C55.598 52.5966 54.3626 52.577 53.1282 52.577C49.9263 52.5781 46.7254 52.577 43.5234 52.577C43.3718 52.5781 43.2192 52.5781 43.0078 52.5781Z" fill="#282828"/>
<path d="M36.4962 28.6461C36.4911 31.0045 34.5874 32.8916 32.2187 32.8864C29.8881 32.8813 27.9793 30.9673 27.9824 28.6378C27.9855 26.2897 29.9015 24.3933 32.2651 24.3984C34.6029 24.4036 36.5014 26.3093 36.4962 28.6461Z" fill="#282828"/>
<path d="M44.5891 35.2031C46.9516 35.2021 48.8687 37.1233 48.845 39.4652C48.8212 41.8205 46.9382 43.6911 44.5912 43.6911C42.2359 43.6911 40.3157 41.771 40.3302 39.428C40.3456 37.0923 42.2493 35.2042 44.5891 35.2031Z" fill="#237DF9"/>
<path d="M36.8713 46.0156C39.2338 46.0146 41.1509 47.9337 41.1271 50.2766C41.1034 52.632 39.2204 54.5036 36.8744 54.5036C34.518 54.5036 32.5989 52.5835 32.6134 50.2416C32.6278 47.9059 34.5314 46.0156 36.8713 46.0156Z" fill="#282828"/>
<path d="M50.7403 41.7503C51.2704 40.2241 51.2817 38.702 50.7383 37.1593C50.8187 37.1469 50.8765 37.1294 50.9342 37.1294C52.875 37.1283 54.8157 37.117 56.7565 37.1356C57.8651 37.1459 58.789 37.976 58.9767 39.0722C59.1582 40.1344 58.5477 41.2213 57.5289 41.61C57.2938 41.6998 57.0329 41.7627 56.7823 41.7637C54.8291 41.7771 52.875 41.773 50.9218 41.773C50.8713 41.773 50.8218 41.7606 50.7403 41.7503Z" fill="#282828"/>
</g>
<defs>
<clipPath id="clip0_1199_14266">
<rect width="79" height="79" fill="white"/>
</clipPath>
</defs>
</svg>
