<svg width="30" height="30" viewBox="0 0 30 30" fill="none" xmlns="http://www.w3.org/2000/svg">
<path d="M16.2512 1.61719C16.6249 1.68879 17.0008 1.75179 17.3731 1.83413C20.5006 2.52721 23.0387 5.23795 23.5421 8.40191C23.8242 10.1761 23.5779 11.8637 22.7731 13.4704C22.7087 13.5993 22.6428 13.6737 22.4753 13.673C20.6538 13.6652 18.8323 13.668 16.9987 13.6523C17.8206 13.4382 18.4435 12.9821 18.7428 12.1745C19.0464 11.3568 18.8989 10.5964 18.3612 9.89618C18.3862 9.85537 18.4106 9.80955 18.4399 9.76802C19.2139 8.66181 18.9819 7.29642 17.8922 6.50955C17.817 6.45513 17.7411 6.35346 17.7311 6.26611C17.6667 5.72124 17.444 5.43843 17.0087 5.38258C16.6041 5.33031 16.2805 5.59093 16.1144 6.10788C15.6991 6.10788 15.2817 6.10788 14.8449 6.10788C14.7483 5.67112 14.4891 5.379 14.0251 5.38544C13.5762 5.39189 13.317 5.67327 13.234 6.09356C13.0378 6.11719 12.8566 6.11862 12.687 6.16372C12.3383 6.2568 12.1249 6.53962 12.1156 6.88401C12.1049 7.25203 12.2975 7.55203 12.6426 7.6673C12.7743 7.71098 12.8567 7.7432 12.8559 7.91074C12.8488 9.25036 12.8516 10.59 12.8502 11.9296C12.8502 11.9647 12.8402 11.9998 12.8337 12.0442C12.4693 12.1308 12.1901 12.3227 12.1256 12.7143C12.054 13.1496 12.2731 13.4418 12.6397 13.6687C12.412 13.6687 12.1843 13.6687 11.9566 13.6687C10.8311 13.6687 9.70629 13.6644 8.58075 13.673C8.39388 13.6745 8.30008 13.6143 8.2156 13.4482C5.77121 8.65465 8.64448 2.79213 13.9428 1.77041C14.212 1.71886 14.4812 1.66874 14.7504 1.61719C15.2509 1.61719 15.7514 1.61719 16.2512 1.61719Z" fill="#F5F7F9"/>
<path d="M5.00064 25.2697C6.01663 25.2697 6.98894 25.2733 7.96125 25.2669C8.2097 25.2654 8.46245 25.2547 8.7066 25.211C10.2259 24.9368 11.2827 23.5915 11.2247 22.0199C11.1689 20.507 9.9918 19.2089 8.47176 19.0943C7.43214 19.0163 6.38393 19.06 5.3393 19.0499C5.23548 19.0492 5.13095 19.0499 5.05505 19.0499C5.05505 18.359 4.9856 17.6924 5.07152 17.0473C5.19682 16.1043 6.08966 15.359 7.03763 15.2853C7.18012 15.2738 7.32331 15.2666 7.46579 15.2666C12.825 15.2659 18.1842 15.2652 23.5441 15.2659C24.7584 15.2659 25.6348 15.886 25.914 16.9521C25.9698 17.1654 25.9956 17.3917 25.9956 17.6122C26.0006 20.6494 26.0013 23.686 25.9978 26.7232C25.9963 28.09 25.0161 29.0595 23.6457 29.0602C18.215 29.0609 12.7842 29.0609 7.35338 29.0602C5.98297 29.0602 5.00636 28.0886 5.00064 26.7232C4.9992 26.2514 5.00064 25.7795 5.00064 25.2697Z" fill="#F5F7F9"/>
<path d="M5.01367 23.6772C5.01367 22.6541 5.01367 21.6675 5.01367 20.6708C5.05234 20.6615 5.08527 20.6465 5.1182 20.6465C6.14422 20.645 7.17095 20.6321 8.19624 20.65C8.97095 20.6636 9.59028 21.3066 9.63968 22.1013C9.68551 22.8395 9.11701 23.5827 8.36021 23.6328C7.39219 23.6973 6.41772 23.6672 5.44541 23.6772C5.30579 23.678 5.16618 23.6772 5.01367 23.6772Z" fill="#F5F7F9"/>
<path d="M14.4531 12.0587C14.4531 11.5926 14.4531 11.1601 14.4531 10.7055C14.5204 10.6969 14.5877 10.6819 14.655 10.6819C15.2787 10.6797 15.9016 10.6783 16.5252 10.6819C16.977 10.6847 17.2877 10.9633 17.2935 11.3606C17.2992 11.7566 16.987 12.0537 16.5431 12.0573C15.8572 12.063 15.172 12.0587 14.4531 12.0587Z" fill="#F5F7F9"/>
<path d="M14.4551 9.0652C14.4551 8.62487 14.4551 8.19241 14.4551 7.72845C14.9978 7.72845 15.5298 7.72773 16.0618 7.72845C16.2665 7.72845 16.4727 7.72129 16.6768 7.73489C17.0112 7.75708 17.2682 8.02773 17.2918 8.36496C17.314 8.68644 17.0971 9.04229 16.7871 9.05518C16.0166 9.08596 15.2434 9.0652 14.4551 9.0652Z" fill="#F5F7F9"/>
</svg>
